SplineFontDB: 3.2
FontName: SaanjoChananMukh
FullName: Saanjo Chanan Mukh
FamilyName: Saanjo Chanan Mukh
Weight: Book
Copyright: Typeface (c) (your company). 2007. All Rights Reserved
Version: 1.00 May 2, 2007, initial release
ItalicAngle: 0
UnderlinePosition: -375
UnderlineWidth: 150
Ascent: 1638
Descent: 410
InvalidEm: 0
sfntRevision: 0x00010000
LayerCount: 2
Layer: 0 1 "Back" 1
Layer: 1 1 "Fore" 0
XUID: [1021 484 -1336992016 14984]
StyleMap: 0x0040
FSType: 8
OS2Version: 1
OS2_WeightWidthSlopeOnly: 0
OS2_UseTypoMetrics: 0
CreationTime: 1178133647
ModificationTime: 1598817568
PfmFamily: 17
TTFWeight: 400
TTFWidth: 5
LineGap: 67
VLineGap: 0
Panose: 2 0 0 0 0 0 0 0 0 0
OS2TypoAscent: 1491
OS2TypoAOffset: 0
OS2TypoDescent: -431
OS2TypoDOffset: 0
OS2TypoLinegap: 307
OS2WinAscent: 1854
OS2WinAOffset: 0
OS2WinDescent: 434
OS2WinDOffset: 0
HheadAscent: 1854
HheadAOffset: 0
HheadDescent: -434
HheadDOffset: 0
OS2SubXSize: 1434
OS2SubYSize: 1331
OS2SubXOff: 0
OS2SubYOff: 283
OS2SupXSize: 1434
OS2SupYSize: 1331
OS2SupXOff: 0
OS2SupYOff: 977
OS2StrikeYSize: 102
OS2StrikeYPos: 530
OS2Vendor: 'HL  '
OS2CodePages: 6000019f.dff70000
OS2UnicodeRanges: a00002af.500078fb.00000000.00000000
DEI: 91125
ShortTable: maxp 16
  1
  0
  653
  72
  5
  0
  0
  2
  16
  47
  66
  0
  1036
  0
  0
  0
EndShort
LangName: 1033 "Typeface +AKkA (your company). 2007. All Rights Reserved" "" "Regular" "Saanjo Chanan Mukh:Version 1.00" "" "Version 1.00 May 2, 2007, initial release" "" "" "" "" "This font was created using FontCreator 5.5 from High-Logic.com"
LangName: 1027 "" "" "Regular"
LangName: 1029 "" "" "Regular"
LangName: 1030 "" "" "Regular"
LangName: 1031 "" "" "Regular"
LangName: 1032 "" "" "Regular"
LangName: 1034 "" "" "Regular"
LangName: 1035 "" "" "Regular"
LangName: 1036 "" "" "Regular"
LangName: 1038 "" "" "Regular"
LangName: 1040 "" "" "Regular"
LangName: 1043 "" "" "Regular"
LangName: 1044 "" "" "Regular"
LangName: 1045 "" "" "Regular"
LangName: 1046 "" "" "Regular"

StartChar: .notdef
Encoding: 65536 -1 0
Width: 1536
GlyphClass: 1
Flags: W
LayerCount: 2
Fore
SplineSet
256 0 m 1,0,-1
 256 1280 l 1,1,-1
 1280 1280 l 1,2,-1
 1280 0 l 1,3,-1
 256 0 l 1,0,-1
288 32 m 1,4,-1
 1248 32 l 1,5,-1
 1248 1248 l 1,6,-1
 288 1248 l 1,7,-1
 288 32 l 1,4,-1
EndSplineSet
EndChar

StartChar: exclam
Encoding: 33 33 4
Width: 725
GlyphClass: 1
Flags: W
LayerCount: 2
Fore
SplineSet
-20 1033 m 1,0,-1
 310 1194 l 1,1,-1
 343 1194 l 1,2,-1
 343 49 l 2,3,4
 343 -65 343 -65 352.5 -93 c 128,-1,5
 362 -121 362 -121 392 -136 c 128,-1,6
 422 -151 422 -151 514 -153 c 1,7,-1
 514 -190 l 1,8,-1
 4 -190 l 1,9,-1
 4 -153 l 1,10,11
 100 -151 100 -151 128 -136.5 c 128,-1,12
 156 -122 156 -122 167 -97.5 c 128,-1,13
 178 -73 178 -73 178 49 c 2,14,-1
 178 781 l 2,15,16
 178 929 178 929 168 971 c 0,17,18
 161 1003 161 1003 142.5 1018 c 128,-1,19
 124 1033 124 1033 98 1033 c 0,20,21
 61 1033 61 1033 -5 1002 c 1,22,-1
 -20 1033 l 1,0,-1
EndSplineSet
EndChar

StartChar: quotedbl
Encoding: 34 34 5
Width: 1005
GlyphClass: 1
Flags: W
LayerCount: 2
Fore
SplineSet
391 998 m 1,0,-1
 337 1290 l 1,1,-1
 315 1411 l 2,2,3
 313 1436 313 1436 313 1461 c 0,4,5
 313 1524 313 1524 341 1553 c 128,-1,6
 369 1582 369 1582 415 1582 c 0,7,8
 458 1582 458 1582 486.5 1553 c 128,-1,9
 515 1524 515 1524 515 1475 c 0,10,11
 515 1390 515 1390 496 1291 c 2,12,-1
 439 998 l 1,13,-1
 391 998 l 1,0,-1
105 988 m 1,14,-1
 50 1284 l 2,15,16
 28 1406 28 1406 28 1450 c 0,17,18
 28 1514 28 1514 54.5 1543 c 128,-1,19
 81 1572 81 1572 126 1572 c 0,20,21
 170 1572 170 1572 199 1542.5 c 128,-1,22
 228 1513 228 1513 228 1464 c 0,23,24
 228 1425 228 1425 202 1283 c 2,25,-1
 148 988 l 1,26,-1
 105 988 l 1,14,-1
EndSplineSet
EndChar

StartChar: numbersign
Encoding: 35 35 6
Width: 1115
GlyphClass: 1
Flags: W
LayerCount: 2
Fore
SplineSet
34 928 m 1,0,1
 92 1065 92 1065 180.5 1139.5 c 128,-1,2
 269 1214 269 1214 401 1214 c 0,3,4
 564 1214 564 1214 651 1108 c 0,5,6
 717 1029 717 1029 717 939 c 0,7,8
 717 791 717 791 531 633 c 1,9,10
 656 584 656 584 720 493 c 128,-1,11
 784 402 784 402 784 279 c 0,12,13
 784 103 784 103 672 -26 c 0,14,15
 526 -194 526 -194 249 -194 c 0,16,17
 112 -194 112 -194 62.5 -160 c 128,-1,18
 13 -126 13 -126 13 -87 c 0,19,20
 13 -58 13 -58 36.5 -36 c 128,-1,21
 60 -14 60 -14 93 -14 c 0,22,23
 118 -14 118 -14 144 -22 c 0,24,25
 161 -27 161 -27 221 -58.5 c 128,-1,26
 281 -90 281 -90 304 -96 c 0,27,28
 341 -107 341 -107 383 -107 c 0,29,30
 485 -107 485 -107 560.5 -28 c 128,-1,31
 636 51 636 51 636 159 c 0,32,33
 636 238 636 238 601 313 c 0,34,35
 575 369 575 369 544 398 c 0,36,37
 501 438 501 438 426 470.5 c 128,-1,38
 351 503 351 503 273 503 c 2,39,-1
 241 503 l 1,40,-1
 241 533 l 1,41,42
 320 543 320 543 399.5 590 c 128,-1,43
 479 637 479 637 515 703 c 128,-1,44
 551 769 551 769 551 848 c 0,45,46
 551 951 551 951 486.5 1014.5 c 128,-1,47
 422 1078 422 1078 326 1078 c 0,48,49
 171 1078 171 1078 67 912 c 1,50,-1
 34 928 l 1,0,1
EndSplineSet
EndChar

StartChar: dollar
Encoding: 36 36 7
Width: 1125
GlyphClass: 1
Flags: W
LayerCount: 2
Fore
SplineSet
943 300 m 1,0,-1
 943 158 l 1,1,-1
 761 158 l 1,2,-1
 761 -200 l 1,3,-1
 596 -200 l 1,4,-1
 596 158 l 1,5,-1
 22 158 l 1,6,-1
 22 286 l 1,7,-1
 651 1184 l 1,8,-1
 761 1184 l 1,9,-1
 761 300 l 1,10,-1
 943 300 l 1,0,-1
596 300 m 1,11,-1
 596 973 l 1,12,-1
 120 300 l 1,13,-1
 596 300 l 1,11,-1
EndSplineSet
EndChar

StartChar: percent
Encoding: 37 37 8
Width: 1105
GlyphClass: 1
Flags: W
LayerCount: 2
Fore
SplineSet
809 1176 m 1,0,-1
 731 1006 l 1,1,-1
 323 1006 l 1,2,-1
 234 824 l 1,3,4
 499 785 499 785 654 627 c 0,5,6
 787 491 787 491 787 307 c 0,7,8
 787 200 787 200 743.5 109 c 128,-1,9
 700 18 700 18 634 -46 c 128,-1,10
 568 -110 568 -110 487 -149 c 0,11,12
 372 -204 372 -204 251 -204 c 0,13,14
 129 -204 129 -204 73.5 -162.5 c 128,-1,15
 18 -121 18 -121 18 -71 c 0,16,17
 18 -43 18 -43 41 -21.5 c 128,-1,18
 64 0 64 0 99 0 c 0,19,20
 125 0 125 0 144.5 -8 c 128,-1,21
 164 -16 164 -16 211 -49 c 0,22,23
 286 -101 286 -101 363 -101 c 0,24,25
 480 -101 480 -101 568.5 -12.5 c 128,-1,26
 657 76 657 76 657 203 c 0,27,28
 657 326 657 326 578 432.5 c 128,-1,29
 499 539 499 539 360 597 c 0,30,31
 251 642 251 642 63 649 c 1,32,-1
 323 1176 l 1,33,-1
 809 1176 l 1,0,-1
EndSplineSet
EndChar

StartChar: ampersand
Encoding: 38 38 9
Width: 1165
GlyphClass: 1
Flags: W
LayerCount: 2
Fore
SplineSet
136 1186 m 1,0,-1
 863 1186 l 1,1,-1
 863 1148 l 1,2,-1
 411 -198 l 1,3,-1
 299 -198 l 1,4,-1
 704 1023 l 1,5,-1
 331 1023 l 2,6,7
 218 1023 218 1023 170 996 c 0,8,9
 86 950 86 950 35 854 c 1,10,-1
 6 865 l 1,11,-1
 136 1186 l 1,0,-1
EndSplineSet
EndChar

StartChar: quotesingle
Encoding: 39 39 10
Width: 605
GlyphClass: 1
Flags: W
LayerCount: 2
Fore
SplineSet
170 1013 m 1,0,-1
 115 1309 l 2,1,2
 93 1431 93 1431 93 1475 c 0,3,4
 93 1539 93 1539 119.5 1568 c 128,-1,5
 146 1597 146 1597 191 1597 c 0,6,7
 235 1597 235 1597 264 1567.5 c 128,-1,8
 293 1538 293 1538 293 1489 c 0,9,10
 293 1450 293 1450 267 1308 c 2,11,-1
 213 1013 l 1,12,-1
 170 1013 l 1,0,-1
EndSplineSet
EndChar

StartChar: parenleft
Encoding: 40 40 11
Width: 1155
GlyphClass: 1
Flags: W
LayerCount: 2
Fore
SplineSet
38 -188 m 1,0,-1
 38 -151 l 1,1,2
 168 -149 168 -149 280 -90.5 c 128,-1,3
 392 -32 392 -32 496.5 114 c 128,-1,4
 601 260 601 260 642 435 c 1,5,6
 485 334 485 334 358 334 c 0,7,8
 215 334 215 334 113 444.5 c 128,-1,9
 11 555 11 555 11 738 c 0,10,11
 11 916 11 916 113 1055 c 0,12,13
 236 1224 236 1224 434 1224 c 0,14,15
 601 1224 601 1224 720 1086 c 0,16,17
 866 915 866 915 866 664 c 0,18,19
 866 438 866 438 755 242.5 c 128,-1,20
 644 47 644 47 446 -82 c 0,21,22
 285 -188 285 -188 95 -188 c 2,23,-1
 38 -188 l 1,0,-1
658 509 m 1,24,25
 676 639 676 639 676 717 c 0,26,27
 676 814 676 814 643 926.5 c 128,-1,28
 610 1039 610 1039 549.5 1099 c 128,-1,29
 489 1159 489 1159 412 1159 c 0,30,31
 323 1159 323 1159 256 1079 c 128,-1,32
 189 999 189 999 189 841 c 0,33,34
 189 630 189 630 278 511 c 0,35,36
 343 425 343 425 438 425 c 0,37,38
 484 425 484 425 547 447 c 128,-1,39
 610 469 610 469 658 509 c 1,24,25
EndSplineSet
EndChar

StartChar: parenright
Encoding: 41 41 12
Width: 1157
GlyphClass: 1
Flags: W
LayerCount: 2
Fore
SplineSet
4 500 m 0,0,1
 4 732 4 732 74 899.5 c 128,-1,2
 144 1067 144 1067 260 1149 c 0,3,4
 350 1214 350 1214 446 1214 c 0,5,6
 602 1214 602 1214 726 1055 c 0,7,8
 881 858 881 858 881 521 c 0,9,10
 881 285 881 285 813 120 c 128,-1,11
 745 -45 745 -45 639.5 -119.5 c 128,-1,12
 534 -194 534 -194 436 -194 c 0,13,14
 242 -194 242 -194 113 35 c 0,15,16
 4 228 4 228 4 500 c 0,0,1
200 475 m 0,17,18
 200 195 200 195 269 18 c 0,19,20
 326 -131 326 -131 439 -131 c 0,21,22
 493 -131 493 -131 551 -82.5 c 128,-1,23
 609 -34 609 -34 639 80 c 0,24,25
 685 252 685 252 685 565 c 0,26,27
 685 797 685 797 637 952 c 0,28,29
 601 1067 601 1067 544 1115 c 0,30,31
 503 1148 503 1148 445 1148 c 0,32,33
 377 1148 377 1148 324 1087 c 0,34,35
 252 1004 252 1004 226 826 c 128,-1,36
 200 648 200 648 200 475 c 0,17,18
EndSplineSet
EndChar

StartChar: asterisk
Encoding: 42 42 13
Width: 1115
GlyphClass: 1
Flags: W
LayerCount: 2
Fore
SplineSet
273 513 m 1,0,1
 112 645 112 645 65.5 725 c 128,-1,2
 19 805 19 805 19 891 c 0,3,4
 19 1023 19 1023 121 1118.5 c 128,-1,5
 223 1214 223 1214 392 1214 c 0,6,7
 556 1214 556 1214 656 1125 c 128,-1,8
 756 1036 756 1036 756 922 c 0,9,10
 756 846 756 846 702 767 c 128,-1,11
 648 688 648 688 477 581 c 1,12,13
 653 445 653 445 710 367 c 0,14,15
 786 265 786 265 786 152 c 0,16,17
 786 9 786 9 677 -92.5 c 128,-1,18
 568 -194 568 -194 391 -194 c 0,19,20
 198 -194 198 -194 90 -73 c 0,21,22
 4 24 4 24 4 139 c 0,23,24
 4 229 4 229 64.5 317.5 c 128,-1,25
 125 406 125 406 273 513 c 1,0,1
430 620 m 1,26,27
 550 728 550 728 582 790.5 c 128,-1,28
 614 853 614 853 614 932 c 0,29,30
 614 1037 614 1037 555 1096.5 c 128,-1,31
 496 1156 496 1156 394 1156 c 256,32,33
 292 1156 292 1156 228 1097 c 128,-1,34
 164 1038 164 1038 164 959 c 0,35,36
 164 907 164 907 190.5 855 c 128,-1,37
 217 803 217 803 266 756 c 1,38,-1
 430 620 l 1,26,27
320 475 m 1,39,40
 237 405 237 405 197 322.5 c 128,-1,41
 157 240 157 240 157 144 c 0,42,43
 157 15 157 15 227.5 -62.5 c 128,-1,44
 298 -140 298 -140 407 -140 c 0,45,46
 515 -140 515 -140 580 -79 c 128,-1,47
 645 -18 645 -18 645 69 c 0,48,49
 645 141 645 141 607 198 c 0,50,51
 536 304 536 304 320 475 c 1,39,40
EndSplineSet
EndChar

StartChar: comma
Encoding: 44 44 15
Width: 1005
GlyphClass: 1
Flags: W
LayerCount: 2
Fore
SplineSet
3 -342 m 1,0,-1
 171 -97 l 1,1,-1
 241 4 l 2,2,3
 258 23 258 23 275 40 c 0,4,5
 320 85 320 85 360 85.5 c 128,-1,6
 400 86 400 86 433 54 c 0,7,8
 463 23 463 23 463 -17 c 128,-1,9
 463 -57 463 -57 428 -92 c 0,10,11
 368 -152 368 -152 284 -209 c 2,12,-1
 37 -376 l 1,13,-1
 3 -342 l 1,0,-1
EndSplineSet
EndChar

StartChar: hyphen
Encoding: 45 45 16
AltUni2: 0000ad.ffffffff.0 0000ad.ffffffff.0
Width: 805
GlyphClass: 1
Flags: W
LayerCount: 2
Fore
SplineSet
83 535 m 1,0,-1
 600 535 l 1,1,-1
 600 384 l 1,2,-1
 83 384 l 1,3,-1
 83 535 l 1,0,-1
EndSplineSet
EndChar

StartChar: period
Encoding: 46 46 17
Width: 805
GlyphClass: 1
Flags: W
LayerCount: 2
Fore
SplineSet
315 -200 m 1,0,-1
 -15 -199 l 1,1,-1
 315 100 l 1,2,-1
 315 -200 l 1,0,-1
EndSplineSet
EndChar

StartChar: slash
Encoding: 47 47 18
Width: 865
GlyphClass: 1
Flags: W
LayerCount: 2
Fore
SplineSet
584 1272 m 1,0,-1
 93 -178 l 1,1,-1
 13 -178 l 1,2,-1
 504 1272 l 1,3,-1
 584 1272 l 1,0,-1
EndSplineSet
EndChar

StartChar: zero
Encoding: 48 48 19
Width: 1205
GlyphClass: 1
Flags: W
LayerCount: 2
Fore
SplineSet
672 250 m 1,0,1
 658 310 658 310 615 357 c 0,2,3
 568 407 568 407 507 420 c 1,4,-1
 507 510 l 1,5,6
 604 496 604 496 675 419 c 0,7,8
 742 346 742 346 757 250 c 1,9,-1
 672 250 l 1,0,1
500 590 m 256,10,11
 368 590 368 590 276.5 499.5 c 128,-1,12
 185 409 185 409 185 280 c 256,13,14
 185 151 185 151 276.5 60.5 c 128,-1,15
 368 -30 368 -30 500 -30 c 0,16,17
 631 -30 631 -30 723 60.5 c 128,-1,18
 815 151 815 151 815 280 c 256,19,20
 815 409 815 409 723.5 499.5 c 128,-1,21
 632 590 632 590 500 590 c 256,10,11
495 770 m 256,22,23
 702 770 702 770 846 626.5 c 128,-1,24
 990 483 990 483 990 279 c 0,25,26
 990 76 990 76 845 -67 c 128,-1,27
 700 -210 700 -210 495 -210 c 0,28,29
 291 -210 291 -210 146 -67 c 128,-1,30
 1 76 1 76 1 279 c 0,31,32
 1 483 1 483 144.5 626.5 c 128,-1,33
 288 770 288 770 495 770 c 256,22,23
EndSplineSet
EndChar

StartChar: one
Encoding: 49 49 20
Width: 1215
GlyphClass: 1
Flags: W
LayerCount: 2
Fore
SplineSet
1005 874 m 1,0,-1
 401 874 l 1,1,-1
 401 1044 l 1,2,-1
 1005 1044 l 1,3,-1
 1005 874 l 1,0,-1
351 175 m 1,4,-1
 351 -212 l 1,5,-1
 158 -212 l 1,6,-1
 158 372 l 1,7,-1
 -5 535 l 1,8,-1
 -5 817 l 1,9,-1
 265 547 l 1,10,-1
 344 799 l 1,11,-1
 404 799 l 1,12,-1
 404 800 l 1,13,-1
 1008 800 l 1,14,-1
 1008 590 l 1,15,-1
 481 590 l 1,16,-1
 351 175 l 1,4,-1
EndSplineSet
EndChar

StartChar: two
Encoding: 50 50 21
Width: 1215
GlyphClass: 1
Flags: W
LayerCount: 2
Fore
SplineSet
351 400 m 1,0,-1
 351 -212 l 1,1,-1
 158 -212 l 1,2,-1
 158 400 l 1,3,-1
 351 400 l 1,0,-1
-5 817 m 1,4,-1
 401 411 l 1,5,-1
 260 270 l 1,6,-1
 -5 535 l 1,7,-1
 -5 817 l 1,4,-1
546 799 m 1,8,-1
 340 140 l 1,9,-1
 162 215 l 1,10,-1
 344 799 l 1,11,-1
 546 799 l 1,8,-1
1008 590 m 1,12,-1
 404 590 l 1,13,-1
 404 800 l 1,14,-1
 1008 800 l 1,15,-1
 1008 590 l 1,12,-1
EndSplineSet
EndChar

StartChar: three
Encoding: 51 51 22
Width: 1205
GlyphClass: 1
Flags: W
LayerCount: 2
Fore
SplineSet
258 114 m 1,0,-1
 258 299 l 1,1,-1
 150 223 l 1,2,-1
 258 114 l 1,0,-1
505 701 m 1,3,-1
 661 810 l 1,4,-1
 782 810 l 1,5,-1
 782 812 l 1,6,-1
 985 812 l 1,7,-1
 985 810 l 1,8,-1
 1016 810 l 1,9,-1
 985 788 l 1,10,-1
 985 -200 l 1,11,-1
 782 -200 l 1,12,-1
 782 646 l 1,13,-1
 500 449 l 1,14,-1
 500 -210 l 1,15,-1
 258 -210 l 1,16,-1
 258 -189 l 1,17,-1
 0 70 l 1,18,-1
 -4 357 l 1,19,-1
 42 311 l 1,20,-1
 11 355 l 1,21,-1
 258 528 l 1,22,-1
 258 580 l 1,23,-1
 11 580 l 1,24,-1
 11 790 l 1,25,-1
 505 790 l 1,26,-1
 505 701 l 1,3,-1
EndSplineSet
EndChar

StartChar: four
Encoding: 52 52 23
Width: 1205
GlyphClass: 1
Flags: W
LayerCount: 2
Fore
SplineSet
258 114 m 1,0,-1
 258 299 l 1,1,-1
 150 223 l 1,2,-1
 258 114 l 1,0,-1
738 336 m 1,3,-1
 738 -174 l 1,4,-1
 618 -174 l 1,5,-1
 618 336 l 1,6,-1
 738 336 l 1,3,-1
505 701 m 1,7,-1
 661 810 l 1,8,-1
 782 810 l 1,9,-1
 782 812 l 1,10,-1
 985 812 l 1,11,-1
 985 810 l 1,12,-1
 1016 810 l 1,13,-1
 985 788 l 1,14,-1
 985 -200 l 1,15,-1
 782 -200 l 1,16,-1
 782 646 l 1,17,-1
 500 449 l 1,18,-1
 500 -210 l 1,19,-1
 258 -210 l 1,20,-1
 258 -189 l 1,21,-1
 0 70 l 1,22,-1
 -4 357 l 1,23,-1
 42 311 l 1,24,-1
 11 355 l 1,25,-1
 258 528 l 1,26,-1
 258 580 l 1,27,-1
 11 580 l 1,28,-1
 11 790 l 1,29,-1
 505 790 l 1,30,-1
 505 701 l 1,7,-1
EndSplineSet
EndChar

StartChar: five
Encoding: 53 53 24
Width: 1205
GlyphClass: 1
Flags: W
LayerCount: 2
Fore
SplineSet
830 600 m 1,0,-1
 -9 600 l 1,1,-1
 -9 810 l 1,2,-1
 985 810 l 1,3,-1
 985 797 l 1,4,-1
 1003 796 l 1,5,-1
 1003 782 l 2,6,7
 1003 405 1003 405 770 134 c 1,8,-1
 1004 -100 l 1,9,-1
 1004 -206 l 1,10,-1
 871 -206 l 1,11,-1
 649 15 l 1,12,13
 393 -201 393 -201 47 -201 c 0,14,15
 21 -201 21 -201 -5 -200 c 1,16,-1
 -5 89 l 1,17,18
 73 71 73 71 159 71 c 0,19,20
 447 71 447 71 649 278 c 0,21,22
 786 418 786 418 830 600 c 1,0,-1
EndSplineSet
EndChar

StartChar: six
Encoding: 54 54 25
Width: 1200
GlyphClass: 1
Flags: W
LayerCount: 2
Fore
SplineSet
1010 809 m 1,0,-1
 1010 599 l 1,1,-1
 173 599 l 1,2,3
 217 417 217 417 354 277 c 0,4,5
 556 70 556 70 844 70 c 0,6,7
 930 70 930 70 1008 88 c 1,8,-1
 1008 -201 l 1,9,10
 982 -202 982 -202 956 -202 c 0,11,12
 596 -202 596 -202 332 32 c 1,13,-1
 104 -196 l 1,14,-1
 -2 -196 l 1,15,-1
 -2 -63 l 1,16,-1
 215 155 l 1,17,18
 56 350 56 350 15 599 c 1,19,-1
 -3 599 l 1,20,-1
 -3 809 l 1,21,-1
 1010 809 l 1,0,-1
EndSplineSet
EndChar

StartChar: seven
Encoding: 55 55 26
Width: 1205
GlyphClass: 1
Flags: W
LayerCount: 2
Fore
SplineSet
451 600 m 1,0,-1
 -9 600 l 1,1,-1
 -9 810 l 1,2,-1
 1020 810 l 1,3,-1
 1020 600 l 1,4,-1
 987 600 l 1,5,-1
 987 587 l 1,6,-1
 968 587 l 2,7,8
 670 587 670 587 464 402 c 0,9,10
 283 239 283 239 260 16 c 1,11,12
 343 27 343 27 427 62 c 0,13,14
 577 127 577 127 683 247 c 1,15,-1
 782 137 l 2,16,17
 780 135 780 135 778 133 c 2,18,-1
 1011 -100 l 1,19,-1
 1011 -206 l 1,20,-1
 878 -206 l 1,21,-1
 659 12 l 1,22,23
 547 -82 547 -82 407 -142 c 0,24,25
 344 -169 344 -169 280 -186 c 1,26,-1
 271 -181 l 1,27,28
 273 -190 273 -190 275 -200 c 1,29,-1
 -14 -200 l 1,30,31
 -15 -176 -15 -176 -15 -152 c 0,32,33
 -15 213 -15 213 270 470 c 0,34,35
 355 546 355 546 451 600 c 1,0,-1
EndSplineSet
EndChar

StartChar: eight
Encoding: 56 56 27
Width: 1205
GlyphClass: 1
Flags: W
LayerCount: 2
Fore
SplineSet
568 116 m 2,0,1
 575 139 575 139 575 165 c 0,2,3
 575 242 575 242 516.5 296 c 128,-1,4
 458 350 458 350 375 350 c 0,5,6
 291 350 291 350 233 296 c 128,-1,7
 175 242 175 242 175 165 c 256,8,9
 175 88 175 88 233 34 c 128,-1,10
 291 -20 291 -20 375 -20 c 0,11,12
 458 -20 458 -20 517 34 c 0,13,14
 552 67 552 67 566 108 c 1,15,-1
 565 109 l 1,16,-1
 568 116 l 2,0,1
683 -37 m 1,17,18
 663 -67 663 -67 636 -93 c 0,19,20
 527 -200 527 -200 372 -200 c 0,21,22
 219 -200 219 -200 110 -93.5 c 128,-1,23
 1 13 1 13 1 164 c 0,24,25
 1 316 1 316 109 423 c 128,-1,26
 217 530 217 530 372 530 c 0,27,28
 529 530 529 530 637 423 c 0,29,30
 667 394 667 394 688 361 c 1,31,-1
 806 602 l 1,32,-1
 11 602 l 1,33,-1
 11 800 l 1,34,-1
 1000 800 l 1,35,-1
 1000 684 l 1,36,-1
 1004 684 l 1,37,-1
 1002 604 l 1,38,-1
 779 149 l 1,39,-1
 1005 -77 l 1,40,-1
 1005 -214 l 1,41,-1
 856 -210 l 1,42,-1
 683 -37 l 1,17,18
EndSplineSet
EndChar

StartChar: nine
Encoding: 57 57 28
Width: 1195
GlyphClass: 1
Flags: W
LayerCount: 2
Fore
SplineSet
507 780 m 0,0,1
 720 780 720 780 867.5 636.5 c 128,-1,2
 1015 493 1015 493 1015 289 c 0,3,4
 1015 86 1015 86 866.5 -57 c 128,-1,5
 718 -200 718 -200 507 -200 c 0,6,7
 298 -200 298 -200 149.5 -57 c 128,-1,8
 1 86 1 86 1 289 c 0,9,10
 1 493 1 493 148 636.5 c 128,-1,11
 295 780 295 780 507 780 c 0,0,1
500 600 m 256,12,13
 368 600 368 600 276.5 509.5 c 128,-1,14
 185 419 185 419 185 290 c 256,15,16
 185 161 185 161 276.5 70.5 c 128,-1,17
 368 -20 368 -20 500 -20 c 0,18,19
 631 -20 631 -20 723 70.5 c 128,-1,20
 815 161 815 161 815 290 c 256,21,22
 815 419 815 419 723.5 509.5 c 128,-1,23
 632 600 632 600 500 600 c 256,12,13
EndSplineSet
EndChar

StartChar: colon
Encoding: 58 58 29
Width: 805
GlyphClass: 1
Flags: W
LayerCount: 2
Fore
SplineSet
-2 -171 m 1,0,-1
 168 77 l 2,1,2
 238 179 238 179 270 210 c 0,3,4
 315 255 315 255 354 256.5 c 128,-1,5
 393 258 393 258 425 227 c 0,6,7
 456 196 456 196 455.5 154.5 c 128,-1,8
 455 113 455 113 421 78 c 0,9,10
 393 51 393 51 274 -31 c 2,11,-1
 28 -201 l 1,12,-1
 -2 -171 l 1,0,-1
-8 108 m 1,13,-1
 117 382 l 2,14,15
 169 495 169 495 194 531 c 0,16,17
 231 583 231 583 269 591.5 c 128,-1,18
 307 600 307 600 344 574 c 0,19,20
 380 549 380 549 387 508.5 c 128,-1,21
 394 468 394 468 366 427 c 0,22,23
 343 396 343 396 241 294 c 2,24,-1
 27 83 l 1,25,-1
 -8 108 l 1,13,-1
EndSplineSet
EndChar

StartChar: semicolon
Encoding: 59 59 30
AltUni2: 00037e.ffffffff.0 00037e.ffffffff.0
Width: 815
GlyphClass: 1
Flags: W
LayerCount: 2
Fore
SplineSet
-3 -171 m 1,0,-1
 167 77 l 2,1,2
 238 179 238 179 269 210 c 0,3,4
 314 255 314 255 353.5 256.5 c 128,-1,5
 393 258 393 258 425 227 c 0,6,7
 456 196 456 196 455.5 154.5 c 128,-1,8
 455 113 455 113 421 78 c 0,9,10
 393 51 393 51 274 -31 c 2,11,-1
 27 -201 l 1,12,-1
 -3 -171 l 1,0,-1
455 380 m 1,13,-1
 245 380 l 1,14,-1
 455 592 l 1,15,-1
 455 380 l 1,13,-1
EndSplineSet
EndChar

StartChar: question
Encoding: 63 63 34
Width: 995
GlyphClass: 1
Flags: W
LayerCount: 2
Fore
SplineSet
275 66 m 1,0,1
 360 289 360 289 347 474 c 0,2,3
 334 660 334 660 272 742 c 0,4,5
 209 824 209 824 136 754 c 256,6,7
 63 684 63 684 21 503 c 1,8,-1
 4 557 l 1,9,10
 23 825 23 825 123 923 c 0,11,12
 224 1020 224 1020 371 977 c 1,13,14
 555 883 555 883 518 543 c 1,15,16
 479 319 479 319 309 48 c 1,17,-1
 275 66 l 1,0,1
465 -190 m 1,18,-1
 255 -189 l 1,19,-1
 465 40 l 1,20,-1
 465 -190 l 1,18,-1
EndSplineSet
EndChar

StartChar: at
Encoding: 64 64 35
Width: 1195
GlyphClass: 1
Flags: W
LayerCount: 2
Fore
SplineSet
909 61 m 1,0,-1
 814 -200 l 1,1,-1
 14 -200 l 1,2,-1
 14 -163 l 1,3,4
 367 159 367 159 511 363 c 128,-1,5
 655 567 655 567 655 736 c 0,6,7
 655 865 655 865 576 948 c 128,-1,8
 497 1031 497 1031 387 1031 c 0,9,10
 287 1031 287 1031 207.5 972.5 c 128,-1,11
 128 914 128 914 90 801 c 1,12,-1
 53 801 l 1,13,14
 78 986 78 986 181.5 1085 c 128,-1,15
 285 1184 285 1184 440 1184 c 0,16,17
 605 1184 605 1184 715.5 1078 c 128,-1,18
 826 972 826 972 826 828 c 0,19,20
 826 725 826 725 778 622 c 0,21,22
 704 460 704 460 538 279 c 0,23,24
 289 7 289 7 227 -49 c 1,25,-1
 581 -49 l 2,26,27
 689 -49 689 -49 732.5 -41 c 128,-1,28
 776 -33 776 -33 811 -8.5 c 128,-1,29
 846 16 846 16 872 61 c 1,30,-1
 909 61 l 1,0,-1
EndSplineSet
EndChar

StartChar: A
Encoding: 65 65 36
Width: 310
GlyphClass: 1
Flags: W
LayerCount: 2
Fore
SplineSet
65 186 m 1,0,-1
 65 -200 l 1,1,-1
 -97 -200 l 1,2,-1
 -97 186 l 1,3,-1
 65 186 l 1,0,-1
EndSplineSet
EndChar

StartChar: B
Encoding: 66 66 37
Width: 1205
GlyphClass: 1
Flags: W
LayerCount: 2
Fore
SplineSet
5 640 m 1,0,-1
 2 640 l 1,1,-1
 2 1610 l 1,2,-1
 210 1610 l 1,3,-1
 210 710 l 1,4,-1
 486 434 l 1,5,-1
 872 820 l 1,6,-1
 1005 820 l 1,7,-1
 1005 666 l 1,8,-1
 630 291 l 1,9,-1
 1005 -85 l 1,10,-1
 1005 -190 l 1,11,-1
 822 -190 l 1,12,-1
 486 147 l 1,13,-1
 153 -186 l 1,14,-1
 -5 -189 l 1,15,-1
 -5 -57 l 1,16,-1
 342 290 l 1,17,-1
 5 627 l 1,18,-1
 5 640 l 1,0,-1
495 1600 m 1,19,-1
 495 990 l 1,20,-1
 302 990 l 1,21,-1
 302 1600 l 1,22,-1
 495 1600 l 1,19,-1
EndSplineSet
EndChar

StartChar: C
Encoding: 67 67 38
Width: 1200
GlyphClass: 1
Flags: W
LayerCount: 2
Fore
SplineSet
995 713 m 1,0,-1
 1000 573 l 1,1,-1
 981 573 l 2,2,3
 685 573 685 573 480 388 c 0,4,5
 410 324 410 324 364 252 c 1,6,7
 411 177 411 177 484 112 c 0,8,9
 690 -74 690 -74 988 -74 c 2,10,-1
 1000 -74 l 1,11,-1
 1000 -214 l 1,12,-1
 988 -214 l 2,13,14
 575 -214 575 -214 290 43 c 0,15,16
 287 45 287 45 285 48 c 1,17,18
 275 -5 275 -5 275 -63 c 0,19,20
 275 -142 275 -142 293 -214 c 1,21,-1
 6 -214 l 1,22,23
 5 -190 5 -190 5 -166 c 0,24,25
 5 63 5 63 117 250 c 1,26,27
 5 436 5 436 5 665 c 0,28,29
 5 689 5 689 6 713 c 1,30,-1
 295 713 l 1,31,32
 277 641 277 641 277 562 c 0,33,34
 277 506 277 506 286 454 c 1,35,36
 287 455 287 455 288 456 c 0,37,38
 506 654 506 654 800 700 c 1,39,-1
 802 700 l 1,40,-1
 802 842 l 1,41,42
 801 840 801 840 800 839 c 0,43,44
 672 661 672 661 504 661 c 0,45,46
 293 661 293 661 146 936 c 0,47,48
 1 1211 1 1211 0 1600 c 1,49,-1
 140 1600 l 1,50,51
 140 1317 140 1317 246 1117 c 0,52,53
 352 918 352 918 504 918 c 0,54,55
 655 918 655 918 761 1117 c 0,56,57
 867 1317 867 1317 867 1600 c 1,58,-1
 1005 1600 l 1,59,60
 1005 1500 1005 1500 995 1407 c 1,61,-1
 995 713 l 1,0,-1
EndSplineSet
EndChar

StartChar: D
Encoding: 68 68 39
Width: 1203
GlyphClass: 1
Flags: W
LayerCount: 2
Fore
SplineSet
200 524 m 1,0,-1
 200 -210 l 1,1,-1
 -5 -210 l 1,2,-1
 -5 790 l 1,3,-1
 200 790 l 1,4,-1
 200 788 l 1,5,-1
 447 788 l 1,6,7
 356 841 356 841 275 914 c 0,8,9
 38 1129 38 1129 -5 1418 c 1,10,11
 -67 1340 -67 1340 -107 1226 c 2,12,-1
 -112 1213 l 1,13,-1
 -185 1261 l 1,14,-1
 -181 1272 l 2,15,16
 -117 1453 -117 1453 -14 1568 c 1,17,18
 -14 1584 -14 1584 -13 1600 c 1,19,-1
 280 1600 l 1,20,21
 262 1526 262 1526 262 1445 c 0,22,23
 262 1174 262 1174 472 984 c 128,-1,24
 682 794 682 794 986 794 c 2,25,-1
 1005 794 l 1,26,-1
 1005 788 l 1,27,-1
 1020 788 l 1,28,-1
 1020 578 l 1,29,-1
 398 578 l 1,30,-1
 995 -19 l 1,31,-1
 995 -209 l 1,32,-1
 932 -208 l 1,33,-1
 200 524 l 1,0,-1
EndSplineSet
EndChar

StartChar: E
Encoding: 69 69 40
Width: 1200
GlyphClass: 1
Flags: W
LayerCount: 2
Fore
SplineSet
866 709 m 1,0,1
 862 970 862 970 760 1156 c 0,2,3
 654 1349 654 1349 503 1349 c 256,4,5
 352 1349 352 1349 246 1156 c 256,6,7
 140 963 140 963 140 690 c 1,8,-1
 3 690 l 1,9,10
 4 1065 4 1065 148 1331 c 0,11,12
 294 1597 294 1597 503 1597 c 0,13,14
 713 1597 713 1597 859 1331 c 0,15,16
 1004 1065 1004 1065 1005 690 c 1,17,-1
 998 690 l 1,18,-1
 1002 574 l 1,19,-1
 983 574 l 2,20,21
 719 574 719 574 527 429 c 1,22,-1
 1001 -45 l 1,23,-1
 1001 -191 l 1,24,-1
 851 -191 l 1,25,-1
 380 280 l 1,26,27
 272 130 272 130 272 -62 c 0,28,29
 272 -141 272 -141 290 -213 c 1,30,-1
 1 -213 l 1,31,32
 0 -189 0 -189 0 -165 c 0,33,34
 0 200 0 200 285 457 c 0,35,36
 529 677 529 677 866 709 c 1,0,1
EndSplineSet
EndChar

StartChar: G
Encoding: 71 71 42
Width: 1205
GlyphClass: 1
Flags: W
LayerCount: 2
Fore
SplineSet
614 310 m 1,0,1
 346 208 346 208 219 -30 c 0,2,3
 174 -115 174 -115 156 -200 c 1,4,-1
 13 -200 l 1,5,-1
 13 -32 l 1,6,7
 176 273 176 273 505 418 c 1,8,9
 308 576 308 576 33 576 c 2,10,-1
 14 576 l 1,11,-1
 17 666 l 1,12,-1
 5 666 l 1,13,-1
 5 1600 l 1,14,-1
 210 1600 l 1,15,-1
 210 703 l 1,16,17
 509 659 509 659 731 459 c 0,18,19
 1016 202 1016 202 1016 -163 c 0,20,21
 1016 -187 1016 -187 1015 -211 c 1,22,-1
 726 -211 l 1,23,24
 744 -139 744 -139 744 -60 c 0,25,26
 744 150 744 150 614 310 c 1,0,1
495 1600 m 1,27,-1
 495 800 l 1,28,-1
 295 800 l 1,29,-1
 295 1600 l 1,30,-1
 495 1600 l 1,27,-1
EndSplineSet
EndChar

StartChar: H
Encoding: 72 72 43
Width: 1205
GlyphClass: 1
Flags: W
LayerCount: 2
Fore
SplineSet
288 703 m 1,0,1
 213 773 213 773 151 897 c 0,2,3
 6 1184 6 1184 5 1590 c 1,4,-1
 144 1590 l 1,5,6
 144 1294 144 1294 250 1087 c 0,7,8
 355 878 355 878 506 878 c 256,9,10
 657 878 657 878 763 1087 c 0,11,12
 868 1294 868 1294 868 1590 c 1,13,-1
 1005 1590 l 1,14,15
 1004 1184 1004 1184 860 897 c 0,16,17
 798 774 798 774 724 704 c 1,18,19
 798 632 798 632 861 506 c 0,20,21
 1004 214 1004 214 1005 -200 c 1,22,-1
 868 -200 l 1,23,24
 868 101 868 101 763 313 c 0,25,26
 658 526 658 526 507 526 c 256,27,28
 356 526 356 526 250 313 c 0,29,30
 145 101 145 101 145 -200 c 1,31,-1
 6 -200 l 1,32,33
 7 214 7 214 152 506 c 0,34,35
 214 631 214 631 288 703 c 1,0,1
EndSplineSet
EndChar

StartChar: I
Encoding: 73 73 44
Width: 700
GlyphClass: 1
Flags: W
LayerCount: 2
Fore
SplineSet
-90 -386 m 1,0,1
 -66 -222 -66 -222 -21 -84 c 0,2,3
 77 210 77 210 218 210 c 0,4,5
 358 210 358 210 455 -84 c 0,6,7
 500 -222 500 -222 524 -386 c 1,8,-1
 419 -387 l 1,9,10
 407 -330 407 -330 390 -278 c 0,11,12
 318 -64 318 -64 218 -64 c 0,13,14
 116 -64 116 -64 46 -278 c 0,15,16
 29 -330 29 -330 16 -387 c 1,17,-1
 -90 -386 l 1,0,1
EndSplineSet
EndChar

StartChar: J
Encoding: 74 74 45
Width: 1200
GlyphClass: 1
Flags: W
LayerCount: 2
Fore
SplineSet
769 945 m 1,0,1
 722 1036 722 1036 648 1114 c 0,2,3
 450 1320 450 1320 167 1320 c 0,4,5
 82 1320 82 1320 5 1302 c 1,6,-1
 5 1591 l 1,7,8
 31 1592 31 1592 57 1592 c 0,9,10
 446 1592 446 1592 720.5 1307 c 128,-1,11
 995 1022 995 1022 995 609 c 2,12,-1
 995 595 l 1,13,-1
 915 592 l 1,14,-1
 915 590 l 1,15,-1
 230 590 l 1,16,-1
 230 -200 l 1,17,-1
 5 -200 l 1,18,-1
 5 590 l 1,19,-1
 -5 590 l 1,20,-1
 -5 800 l 1,21,-1
 707 800 l 1,22,23
 561 925 561 925 366 966 c 0,24,25
 170 1008 170 1008 0 950 c 1,26,-1
 0 1183 l 1,27,28
 148 1197 148 1197 310 1164 c 0,29,30
 571 1110 571 1110 769 945 c 1,0,1
495 370 m 1,31,-1
 495 -210 l 1,32,-1
 285 -210 l 1,33,-1
 285 370 l 1,34,-1
 495 370 l 1,31,-1
EndSplineSet
EndChar

StartChar: K
Encoding: 75 75 46
Width: 1205
GlyphClass: 1
Flags: W
LayerCount: 2
Fore
SplineSet
744 687 m 1,0,1
 490 717 490 717 292 806 c 0,2,3
 -3 940 -3 940 -3 1132 c 0,4,5
 -3 1325 -3 1325 292 1459 c 0,6,7
 586 1592 586 1592 1002 1593 c 1,8,-1
 1002 1465 l 1,9,10
 699 1465 699 1465 486 1368 c 0,11,12
 272 1271 272 1271 272 1132 c 256,13,14
 272 993 272 993 486 896 c 0,15,16
 699 799 699 799 1002 799 c 1,17,-1
 1002 713 l 1,18,-1
 1006 713 l 1,19,-1
 1011 573 l 1,20,-1
 992 573 l 2,21,22
 694 573 694 573 488 388 c 0,23,24
 416 323 416 323 369 250 c 1,25,26
 416 176 416 176 488 112 c 0,27,28
 694 -74 694 -74 992 -74 c 2,29,-1
 1011 -74 l 1,30,-1
 1006 -214 l 1,31,-1
 992 -214 l 2,32,33
 579 -214 579 -214 294 43 c 0,34,35
 292 45 292 45 290 46 c 1,36,37
 281 -6 281 -6 281 -63 c 0,38,39
 281 -142 281 -142 299 -214 c 1,40,-1
 10 -214 l 1,41,42
 9 -190 9 -190 9 -166 c 0,43,44
 9 63 9 63 121 250 c 1,45,46
 9 436 9 436 9 665 c 0,47,48
 9 689 9 689 10 713 c 1,49,-1
 299 713 l 1,50,51
 281 641 281 641 281 562 c 0,52,53
 281 506 281 506 290 453 c 1,54,55
 292 454 292 454 294 456 c 0,56,57
 489 632 489 632 744 687 c 1,0,1
EndSplineSet
EndChar

StartChar: L
Encoding: 76 76 47
Width: 1190
GlyphClass: 1
Flags: W
LayerCount: 2
Fore
SplineSet
493 142 m 1,0,-1
 160 -191 l 1,1,-1
 2 -194 l 1,2,-1
 2 -62 l 1,3,-1
 349 285 l 1,4,-1
 12 622 l 1,5,-1
 12 635 l 1,6,-1
 -10 635 l 1,7,-1
 -10 1605 l 1,8,-1
 1012 1605 l 1,9,-1
 1012 1400 l 1,10,-1
 200 1400 l 1,11,-1
 200 722 l 1,12,-1
 493 429 l 1,13,-1
 879 815 l 1,14,-1
 1012 815 l 1,15,-1
 1012 661 l 1,16,-1
 637 286 l 1,17,-1
 1012 -90 l 1,18,-1
 1012 -195 l 1,19,-1
 829 -195 l 1,20,-1
 493 142 l 1,0,-1
EndSplineSet
EndChar

StartChar: M
Encoding: 77 77 48
Width: 1205
GlyphClass: 1
Flags: W
LayerCount: 2
Fore
SplineSet
1005 328 m 1,0,-1
 610 328 l 1,1,-1
 610 498 l 1,2,-1
 1005 498 l 1,3,-1
 1005 328 l 1,0,-1
351 175 m 1,4,-1
 351 -212 l 1,5,-1
 158 -212 l 1,6,-1
 158 372 l 1,7,-1
 -5 535 l 1,8,-1
 -5 817 l 1,9,-1
 265 547 l 1,10,-1
 344 799 l 1,11,-1
 404 799 l 1,12,-1
 404 800 l 1,13,-1
 1008 800 l 1,14,-1
 1008 590 l 1,15,-1
 481 590 l 1,16,-1
 351 175 l 1,4,-1
EndSplineSet
EndChar

StartChar: N
Encoding: 78 78 49
Width: 1200
GlyphClass: 1
Flags: W
LayerCount: 2
Fore
SplineSet
164 865 m 1,0,1
 -9 979 -9 979 -9 1126 c 0,2,3
 -9 1319 -9 1319 285 1453 c 0,4,5
 539 1568 539 1568 883 1584 c 1,6,-1
 889 1590 l 1,7,-1
 1005 1590 l 1,8,-1
 1005 1480 l 1,9,-1
 995 1470 l 1,10,-1
 995 1459 l 1,11,-1
 984 1459 l 1,12,-1
 436 911 l 1,13,14
 456 900 456 900 479 890 c 0,15,16
 692 793 692 793 995 793 c 1,17,-1
 995 717 l 1,18,-1
 1000 577 l 1,19,-1
 981 577 l 2,20,21
 682 577 682 577 475 392 c 0,22,23
 415 338 415 338 373 278 c 1,24,25
 689 239 689 239 922 30 c 0,26,27
 973 -16 973 -16 1015 -66 c 1,28,-1
 1015 -210 l 1,29,-1
 865 -210 l 1,30,31
 815 -117 815 -117 728 -38 c 0,32,33
 549 122 549 122 302 144 c 1,34,35
 268 49 268 49 268 -59 c 0,36,37
 268 -138 268 -138 286 -210 c 1,38,-1
 -3 -210 l 1,39,40
 -5 -186 -5 -186 -5 -162 c 0,41,42
 -5 203 -5 203 281 460 c 0,43,44
 467 627 467 627 706 685 c 1,45,46
 489 714 489 714 313 788 c 1,47,-1
 115 590 l 1,48,-1
 3 590 l 1,49,-1
 4 705 l 1,50,-1
 164 865 l 1,0,1
738 1439 m 1,51,52
 595 1415 595 1415 479 1362 c 0,53,54
 265 1265 265 1265 265 1126 c 0,55,56
 265 1063 265 1063 308 1009 c 1,57,-1
 738 1439 l 1,51,52
EndSplineSet
EndChar

StartChar: O
Encoding: 79 79 50
Width: 259
GlyphClass: 1
Flags: W
LayerCount: 2
Fore
SplineSet
165 1206 m 1,0,-1
 165 820 l 1,1,-1
 3 820 l 1,2,-1
 3 1206 l 1,3,-1
 165 1206 l 1,0,-1
EndSplineSet
EndChar

StartChar: P
Encoding: 80 80 51
Width: 1200
GlyphClass: 1
Flags: W
LayerCount: 2
Fore
SplineSet
348 800 m 1,0,-1
 995 800 l 1,1,-1
 995 590 l 1,2,-1
 550 590 l 1,3,4
 642 538 642 538 724 464 c 0,5,6
 1009 207 1009 207 1009 -158 c 0,7,8
 1009 -182 1009 -182 1008 -206 c 1,9,-1
 719 -206 l 1,10,11
 737 -134 737 -134 737 -55 c 0,12,13
 737 210 737 210 531 396 c 0,14,15
 359 550 359 550 124 576 c 1,16,-1
 -52 400 l 1,17,-1
 -175 400 l 1,18,-1
 -175 575 l 1,19,-1
 1 751 l 1,20,-1
 1 800 l 1,21,-1
 5 800 l 1,22,-1
 5 1600 l 1,23,-1
 200 1600 l 1,24,-1
 200 950 l 1,25,-1
 841 1590 l 1,26,-1
 1015 1590 l 1,27,-1
 1015 1467 l 1,28,-1
 348 800 l 1,0,-1
EndSplineSet
EndChar

StartChar: Q
Encoding: 81 81 52
Width: 1200
GlyphClass: 1
Flags: W
LayerCount: 2
Fore
SplineSet
5 590 m 1,0,-1
 1 590 l 1,1,-1
 1 800 l 1,2,-1
 5 800 l 1,3,-1
 5 1600 l 1,4,-1
 210 1600 l 1,5,-1
 210 933 l 1,6,-1
 867 1590 l 1,7,-1
 1015 1590 l 1,8,-1
 1015 1486 l 1,9,-1
 329 800 l 1,10,-1
 995 800 l 1,11,-1
 995 718 l 1,12,-1
 1000 578 l 1,13,-1
 981 578 l 2,14,15
 682 578 682 578 475 393 c 0,16,17
 418 341 418 341 377 284 c 1,18,19
 675 240 675 240 898 40 c 0,20,21
 949 -6 949 -6 991 -56 c 1,22,-1
 991 -200 l 1,23,-1
 841 -200 l 1,24,25
 791 -107 791 -107 704 -28 c 0,26,27
 534 123 534 123 305 151 c 1,28,29
 268 53 268 53 268 -58 c 0,30,31
 268 -137 268 -137 286 -209 c 1,32,-1
 -3 -209 l 1,33,34
 -5 -185 -5 -185 -5 -161 c 0,35,36
 -5 204 -5 204 281 461 c 0,37,38
 365 537 365 537 460 590 c 1,39,-1
 119 590 l 1,40,-1
 109 580 l 1,41,-1
 5 580 l 1,42,-1
 5 590 l 1,0,-1
EndSplineSet
EndChar

StartChar: R
Encoding: 82 82 53
Width: 1195
GlyphClass: 1
Flags: W
LayerCount: 2
Fore
SplineSet
491 1590 m 1,0,-1
 491 980 l 1,1,-1
 281 980 l 1,2,-1
 281 1590 l 1,3,-1
 491 1590 l 1,0,-1
-5 810 m 1,4,-1
 -5 1610 l 1,5,-1
 200 1610 l 1,6,-1
 200 810 l 1,7,-1
 985 810 l 1,8,-1
 985 727 l 1,9,-1
 995 727 l 1,10,-1
 1000 587 l 1,11,-1
 981 587 l 2,12,13
 679 587 679 587 470 402 c 0,14,15
 287 239 287 239 264 16 c 1,16,17
 345 28 345 28 427 62 c 0,18,19
 577 127 577 127 683 247 c 1,20,-1
 782 137 l 2,21,22
 780 135 780 135 778 133 c 2,23,-1
 1011 -100 l 1,24,-1
 1011 -206 l 1,25,-1
 878 -206 l 1,26,-1
 659 12 l 1,27,28
 547 -82 547 -82 407 -142 c 0,29,30
 344 -169 344 -169 280 -186 c 1,31,-1
 275 -183 l 1,32,33
 277 -191 277 -191 279 -200 c 1,34,-1
 -13 -200 l 1,35,36
 -15 -176 -15 -176 -15 -152 c 0,37,38
 -15 213 -15 213 274 470 c 0,39,40
 359 546 359 546 456 600 c 1,41,-1
 -9 600 l 1,42,-1
 -9 810 l 1,43,-1
 -5 810 l 1,4,-1
EndSplineSet
EndChar

StartChar: T
Encoding: 84 84 55
Width: 1200
GlyphClass: 1
Flags: W
LayerCount: 2
Fore
SplineSet
-3 1592 m 1,0,-1
 -3 1615 l 1,1,2
 75 1615 75 1615 148 1610 c 1,3,-1
 191 1610 l 1,4,-1
 191 1607 l 1,5,6
 484 1582 484 1582 707 1481 c 0,7,8
 1002 1347 1002 1347 1002 1154 c 0,9,10
 1002 962 1002 962 707 828 c 0,11,12
 488 729 488 729 200 704 c 1,13,-1
 200 668 l 1,14,-1
 191 668 l 1,15,16
 201 600 201 600 216 556 c 0,17,18
 234 495 234 495 260 438 c 1,19,20
 274 452 274 452 290 466 c 0,21,22
 575 723 575 723 988 723 c 2,23,-1
 995 723 l 1,24,-1
 995 583 l 1,25,-1
 988 583 l 2,26,27
 690 583 690 583 484 398 c 0,28,29
 413 334 413 334 366 261 c 1,30,31
 424 187 424 187 499 120 c 0,32,33
 702 -62 702 -62 995 -67 c 1,34,-1
 1000 -74 l 1,35,-1
 1000 -210 l 1,36,37
 588 -205 588 -205 301 50 c 0,38,39
 294 56 294 56 287 62 c 1,40,41
 277 7 277 7 277 -53 c 0,42,43
 277 -132 277 -132 295 -204 c 1,44,-1
 200 -203 l 1,45,-1
 6 -204 l 1,46,47
 5 -180 5 -180 5 -156 c 0,48,49
 5 77 5 77 121 266 c 1,50,51
 13 447 13 447 10 668 c 1,52,-1
 5 668 l 1,53,-1
 5 695 l 1,54,-1
 -3 695 l 1,55,-1
 -3 770 l 1,56,-1
 -5 770 l 1,57,-1
 -5 1592 l 1,58,-1
 -3 1592 l 1,0,-1
195 832 m 1,59,60
 198 833 198 833 200 833 c 0,61,62
 375 855 375 855 513 918 c 0,63,64
 727 1015 727 1015 727 1154 c 256,65,66
 727 1293 727 1293 513 1390 c 0,67,68
 375 1453 375 1453 200 1475 c 0,69,70
 198 1475 198 1475 195 1476 c 1,71,-1
 195 832 l 1,59,60
EndSplineSet
EndChar

StartChar: U
Encoding: 85 85 56
Width: 5
GlyphClass: 1
Flags: W
LayerCount: 2
Fore
SplineSet
299 1680 m 1,0,-1
 15 1680 l 1,1,-1
 15 1832 l 1,2,-1
 299 1832 l 1,3,-1
 299 1680 l 1,0,-1
EndSplineSet
EndChar

StartChar: V
Encoding: 86 86 57
Width: 1200
GlyphClass: 1
Flags: W
LayerCount: 2
Fore
SplineSet
144 1148 m 256,1,2
 144 1013 144 1013 250 918 c 128,-1,3
 356 823 356 823 506 823 c 0,4,5
 657 823 657 823 762.5 918 c 128,-1,6
 868 1013 868 1013 868 1148 c 256,7,8
 868 1283 868 1283 762.5 1378 c 128,-1,9
 657 1473 657 1473 506 1473 c 256,10,11
 355 1473 355 1473 249.5 1378 c 128,-1,0
 144 1283 144 1283 144 1148 c 256,1,2
14 1058 m 1,12,13
 5 1101 5 1101 5 1147 c 0,14,15
 5 1337 5 1337 150.5 1471 c 128,-1,16
 296 1605 296 1605 506 1605 c 0,17,18
 715 1605 715 1605 860 1471 c 128,-1,19
 1005 1337 1005 1337 1005 1147 c 256,20,21
 1005 957 1005 957 858.5 823.5 c 128,-1,22
 712 690 712 690 506 690 c 0,23,24
 331 690 331 690 200 784 c 1,25,-1
 200 668 l 1,26,-1
 191 668 l 1,27,28
 201 600 201 600 216 556 c 0,29,30
 234 495 234 495 260 438 c 1,31,32
 274 452 274 452 290 466 c 0,33,34
 575 723 575 723 988 723 c 2,35,-1
 995 723 l 1,36,-1
 995 583 l 1,37,-1
 988 583 l 2,38,39
 690 583 690 583 484 398 c 0,40,41
 413 334 413 334 366 261 c 1,42,43
 424 187 424 187 499 120 c 0,44,45
 702 -62 702 -62 995 -67 c 1,46,-1
 1000 -74 l 1,47,-1
 1000 -210 l 1,48,49
 588 -205 588 -205 301 50 c 0,50,51
 294 56 294 56 287 62 c 1,52,53
 277 7 277 7 277 -53 c 0,54,55
 277 -132 277 -132 295 -204 c 1,56,-1
 6 -204 l 1,57,58
 5 -180 5 -180 5 -156 c 0,59,60
 5 77 5 77 121 266 c 1,61,62
 13 447 13 447 10 668 c 1,63,-1
 5 668 l 1,64,-1
 5 1058 l 1,65,-1
 14 1058 l 1,12,13
EndSplineSet
EndChar

StartChar: W
Encoding: 87 87 58
Width: 1200
GlyphClass: 1
Flags: W
LayerCount: 2
Fore
SplineSet
805 860 m 1,0,1
 675 680 675 680 504 680 c 0,2,3
 293 680 293 680 146 948 c 0,4,5
 1 1215 1 1215 0 1593 c 1,6,-1
 140 1593 l 1,7,8
 140 1318 140 1318 246 1124 c 256,9,10
 352 930 352 930 504 930 c 0,11,12
 655 930 655 930 761 1124 c 256,13,14
 867 1318 867 1318 867 1593 c 1,15,-1
 1005 1593 l 1,16,17
 1005 1496 1005 1496 995 1406 c 1,18,-1
 995 716 l 1,19,-1
 1001 716 l 1,20,-1
 1006 576 l 1,21,-1
 987 576 l 2,22,23
 689 576 689 576 483 391 c 0,24,25
 426 340 426 340 385 283 c 1,26,27
 684 238 684 238 907 38 c 0,28,29
 958 -8 958 -8 1000 -58 c 1,30,-1
 1000 -202 l 1,31,-1
 850 -202 l 1,32,33
 800 -109 800 -109 713 -30 c 0,34,35
 543 122 543 122 313 149 c 1,36,37
 276 52 276 52 276 -60 c 0,38,39
 276 -139 276 -139 294 -211 c 1,40,-1
 5 -211 l 1,41,42
 4 -187 4 -187 4 -163 c 0,43,44
 4 202 4 202 289 459 c 0,45,46
 509 657 509 657 805 703 c 1,47,-1
 805 860 l 1,0,1
EndSplineSet
EndChar

StartChar: X
Encoding: 88 88 59
Width: 0
GlyphClass: 1
Flags: W
LayerCount: 2
Fore
SplineSet
410 270 m 1,0,-1
 10 270 l 1,1,-1
 10 423 l 1,2,-1
 410 423 l 1,3,-1
 410 270 l 1,0,-1
EndSplineSet
EndChar

StartChar: Y
Encoding: 89 89 60
Width: 1200
GlyphClass: 1
Flags: W
LayerCount: 2
Fore
SplineSet
504 1471 m 256,0,1
 353 1471 353 1471 247.5 1373 c 128,-1,2
 142 1275 142 1275 142 1135 c 0,3,4
 142 996 142 996 247.5 898 c 128,-1,5
 353 800 353 800 504 800 c 0,6,7
 654 800 654 800 760 898 c 128,-1,8
 866 996 866 996 866 1135 c 0,9,10
 866 1275 866 1275 760.5 1373 c 128,-1,11
 655 1471 655 1471 504 1471 c 256,0,1
800 769 m 1,12,13
 672 681 672 681 504 681 c 0,14,15
 298 681 298 681 151.5 816.5 c 128,-1,16
 5 952 5 952 5 1144 c 256,17,18
 5 1336 5 1336 150 1471.5 c 128,-1,19
 295 1607 295 1607 504 1607 c 0,20,21
 714 1607 714 1607 859.5 1471.5 c 128,-1,22
 1005 1336 1005 1336 1005 1144 c 0,23,24
 1005 1091 1005 1091 994 1042 c 1,25,-1
 995 1042 l 1,26,-1
 995 703 l 1,27,-1
 999 591 l 1,28,-1
 980 591 l 2,29,30
 705 591 705 591 507 433 c 1,31,-1
 998 -58 l 1,32,-1
 998 -204 l 1,33,-1
 848 -204 l 1,34,-1
 365 279 l 1,35,36
 269 136 269 136 269 -45 c 0,37,38
 269 -124 269 -124 287 -196 c 1,39,-1
 -2 -196 l 1,40,41
 -3 -172 -3 -172 -3 -148 c 0,42,43
 -3 217 -3 217 282 474 c 0,44,45
 503 673 503 673 800 718 c 1,46,-1
 800 769 l 1,12,13
EndSplineSet
EndChar

StartChar: Z
Encoding: 90 90 61
Width: 15
GlyphClass: 1
Flags: W
LayerCount: 2
Fore
SplineSet
494 1466 m 1,0,1
 507 1409 507 1409 524 1358 c 0,2,3
 594 1144 594 1144 696 1144 c 0,4,5
 796 1144 796 1144 868 1358 c 0,6,7
 885 1409 885 1409 897 1466 c 1,8,-1
 1002 1466 l 1,9,10
 978 1302 978 1302 933 1164 c 0,11,12
 836 869 836 869 696 869 c 0,13,14
 555 869 555 869 457 1164 c 0,15,16
 412 1302 412 1302 388 1466 c 1,17,-1
 494 1466 l 1,0,1
EndSplineSet
EndChar

StartChar: asciicircum
Encoding: 94 94 65
Width: 1145
GlyphClass: 1
Flags: W
LayerCount: 2
Fore
SplineSet
848 1401 m 1,0,-1
 848 1364 l 1,1,2
 716 1351 716 1351 632.5 1311.5 c 128,-1,3
 549 1272 549 1272 467.5 1191 c 128,-1,4
 386 1110 386 1110 332.5 1010.5 c 128,-1,5
 279 911 279 911 243 774 c 1,6,7
 387 873 387 873 532 873 c 0,8,9
 671 873 671 873 773 761 c 128,-1,10
 875 649 875 649 875 473 c 0,11,12
 875 303 875 303 772 163 c 0,13,14
 648 -7 648 -7 444 -7 c 0,15,16
 305 -7 305 -7 208 85 c 0,17,18
 18 264 18 264 18 549 c 0,19,20
 18 731 18 731 91 895 c 128,-1,21
 164 1059 164 1059 299.5 1186 c 128,-1,22
 435 1313 435 1313 559 1357 c 128,-1,23
 683 1401 683 1401 790 1401 c 2,24,-1
 848 1401 l 1,0,-1
226 701 m 1,25,26
 208 566 208 566 208 483 c 0,27,28
 208 387 208 387 243.5 274.5 c 128,-1,29
 279 162 279 162 349 96 c 0,30,31
 400 49 400 49 473 49 c 0,32,33
 560 49 560 49 628.5 131 c 128,-1,34
 697 213 697 213 697 365 c 0,35,36
 697 536 697 536 629 661 c 128,-1,37
 561 786 561 786 436 786 c 0,38,39
 398 786 398 786 354.5 770 c 128,-1,40
 311 754 311 754 226 701 c 1,25,26
EndSplineSet
EndChar

StartChar: underscore
Encoding: 95 95 66
Width: 1125
GlyphClass: 1
Flags: W
LayerCount: 2
Fore
SplineSet
915 -442 m 1,0,-1
 3 -442 l 1,1,-1
 3 -250 l 1,2,-1
 915 -250 l 1,3,-1
 915 -442 l 1,0,-1
EndSplineSet
EndChar

StartChar: a
Encoding: 97 97 68
Width: 1195
GlyphClass: 1
Flags: W
LayerCount: 2
Fore
SplineSet
200 442 m 1,0,-1
 200 -213 l 1,1,-1
 -2 -213 l 1,2,-1
 -2 686 l 1,3,-1
 7 686 l 1,4,5
 28 1055 28 1055 281 1317 c 0,6,7
 557 1602 557 1602 948 1602 c 0,8,9
 974 1602 974 1602 1000 1601 c 1,10,-1
 1000 1312 l 1,11,12
 923 1330 923 1330 838 1330 c 0,13,14
 553 1330 553 1330 354 1124 c 0,15,16
 240 1005 240 1005 191 856 c 1,17,18
 402 1048 402 1048 691 1108 c 0,19,20
 852 1141 852 1141 1000 1127 c 1,21,-1
 1000 894 l 1,22,23
 830 952 830 952 633 910 c 0,24,25
 399 861 399 861 236 692 c 1,26,-1
 990 -61 l 1,27,-1
 990 -193 l 1,28,-1
 836 -193 l 1,29,-1
 200 442 l 1,0,-1
EndSplineSet
EndChar

StartChar: b
Encoding: 98 98 69
Width: 1200
GlyphClass: 1
Flags: W
LayerCount: 2
Fore
SplineSet
982 727 m 1,0,-1
 987 587 l 1,1,-1
 968 587 l 2,2,3
 670 587 670 587 463.5 401.5 c 128,-1,4
 257 216 257 216 257 -49 c 0,5,6
 257 -128 257 -128 275 -200 c 1,7,-1
 -14 -200 l 1,8,9
 -15 -176 -15 -176 -15 -152 c 0,10,11
 -15 213 -15 213 270 470 c 128,-1,12
 555 727 555 727 968 727 c 2,13,-1
 982 727 l 1,0,-1
1019 600 m 1,14,-1
 0 600 l 1,15,-1
 0 810 l 1,16,-1
 1019 810 l 1,17,-1
 1019 600 l 1,14,-1
210 1610 m 1,18,-1
 210 800 l 1,19,-1
 -5 800 l 1,20,-1
 -5 1610 l 1,21,-1
 210 1610 l 1,18,-1
1005 -200 m 1,22,-1
 855 -200 l 1,23,24
 805 -107 805 -107 718 -28 c 0,25,26
 511 157 511 157 214 157 c 2,27,-1
 195 157 l 1,28,-1
 199 297 l 1,29,-1
 214 297 l 2,30,31
 626 297 626 297 912 40 c 0,32,33
 963 -6 963 -6 1005 -56 c 1,34,-1
 1005 -200 l 1,22,-1
390 1105 m 1,35,-1
 1005 1105 l 1,36,-1
 1005 890 l 1,37,-1
 390 890 l 1,38,-1
 390 1105 l 1,35,-1
EndSplineSet
EndChar

StartChar: c
Encoding: 99 99 70
Width: 1205
GlyphClass: 1
Flags: W
LayerCount: 2
Fore
SplineSet
1015 595 m 1,0,-1
 863 590 l 1,1,-1
 863 609 l 2,2,3
 863 907 863 907 661 1113.5 c 128,-1,4
 459 1320 459 1320 170 1320 c 0,5,6
 84 1320 84 1320 6 1302 c 1,7,-1
 6 1591 l 1,8,9
 32 1592 32 1592 58 1592 c 0,10,11
 455 1592 455 1592 735 1307 c 128,-1,12
 1015 1022 1015 1022 1015 609 c 2,13,-1
 1015 595 l 1,0,-1
0 1101 m 1,14,15
 137 1123 137 1123 290 1105 c 0,16,17
 703 1058 703 1058 985 745 c 2,18,-1
 995 734 l 1,19,-1
 880 639 l 1,20,-1
 868 653 l 1,21,22
 663 879 663 879 365 913 c 0,23,24
 166 937 166 937 0 867 c 1,25,-1
 0 1101 l 1,14,15
990 588 m 1,26,27
 687 588 687 588 474 491 c 0,28,29
 260 394 260 394 260 255 c 256,30,31
 260 116 260 116 474 19 c 0,32,33
 687 -78 687 -78 990 -78 c 1,34,-1
 990 -204 l 1,35,36
 574 -203 574 -203 280 -71 c 0,37,38
 -15 63 -15 63 -15 255 c 0,39,40
 -15 448 -15 448 280 582 c 0,41,42
 574 715 574 715 990 716 c 1,43,-1
 990 588 l 1,26,27
EndSplineSet
EndChar

StartChar: d
Encoding: 100 100 71
Width: 1200
GlyphClass: 1
Flags: W
LayerCount: 2
Fore
SplineSet
1000 588 m 1,0,-1
 714 588 l 1,1,2
 1002 453 1002 453 1002 260 c 0,3,4
 1002 65 1002 65 707 -70 c 0,5,6
 413 -203 413 -203 -3 -205 c 1,7,-1
 -3 -149 l 1,8,-1
 -5 -149 l 1,9,-1
 -5 620 l 1,10,-1
 -3 620 l 1,11,-1
 -3 800 l 1,12,-1
 441 800 l 1,13,14
 353 852 353 852 275 922 c 0,15,16
 38 1134 38 1134 -5 1420 c 1,17,18
 -67 1344 -67 1344 -107 1230 c 2,19,-1
 -112 1217 l 1,20,-1
 -185 1265 l 1,21,-1
 -181 1276 l 2,22,23
 -117 1455 -117 1455 -14 1569 c 1,24,25
 -14 1584 -14 1584 -13 1600 c 1,26,-1
 280 1600 l 1,27,28
 262 1527 262 1527 262 1447 c 0,29,30
 262 1179 262 1179 472 991 c 128,-1,31
 682 803 682 803 986 803 c 2,32,-1
 1000 803 l 1,33,-1
 1000 588 l 1,0,-1
186 587 m 1,34,-1
 190 564 l 1,35,-1
 190 -66 l 1,36,37
 371 -44 371 -44 513 21 c 0,38,39
 727 119 727 119 727 260 c 0,40,41
 727 400 727 400 513 499 c 0,42,43
 370 564 370 564 186 587 c 1,34,-1
EndSplineSet
EndChar

StartChar: e
Encoding: 101 101 72
Width: 1200
GlyphClass: 1
Flags: W
LayerCount: 2
Fore
SplineSet
1006 -163 m 0,1,2
 1006 -187 1006 -187 1005 -211 c 1,3,-1
 716 -211 l 1,4,5
 734 -139 734 -139 734 -60 c 0,6,7
 734 150 734 150 604 310 c 1,8,9
 336 208 336 208 209 -30 c 0,10,11
 164 -115 164 -115 146 -200 c 1,12,-1
 3 -200 l 1,13,-1
 3 -32 l 1,14,15
 166 273 166 273 495 418 c 1,16,17
 298 576 298 576 23 576 c 2,18,-1
 4 576 l 1,19,-1
 8 680 l 1,20,-1
 0 680 l 1,21,22
 1 1058 1 1058 146 1325 c 0,23,24
 293 1593 293 1593 504 1593 c 0,25,26
 713 1593 713 1593 860 1325 c 0,27,28
 1004 1058 1004 1058 1005 680 c 1,29,-1
 867 680 l 1,30,31
 867 955 867 955 761 1149 c 256,32,33
 655 1343 655 1343 504 1343 c 0,34,35
 352 1343 352 1343 246 1149 c 0,36,37
 146 966 146 966 140 711 c 1,38,39
 477 679 477 679 721 459 c 0,40,41
 767 417 767 417 806 373 c 0,42,0
 1006 143 1006 143 1006 -163 c 0,1,2
823 595 m 1,43,-1
 844 595 l 1,44,-1
 931 553 l 1,45,-1
 965 521 l 1,46,47
 982 491 982 491 998 456 c 1,48,-1
 998 241 l 1,49,-1
 961 241 l 1,50,51
 900 409 900 409 823 454 c 1,52,-1
 823 595 l 1,43,-1
EndSplineSet
EndChar

StartChar: f
Encoding: 102 102 73
Width: 1195
GlyphClass: 1
Flags: W
LayerCount: 2
Fore
SplineSet
504 1466 m 256,0,1
 353 1466 353 1466 247.5 1369.5 c 128,-1,2
 142 1273 142 1273 142 1136 c 256,3,4
 142 999 142 999 247.5 902 c 128,-1,5
 353 805 353 805 504 805 c 0,6,7
 654 805 654 805 760 902 c 128,-1,8
 866 999 866 999 866 1136 c 256,9,10
 866 1273 866 1273 760.5 1369.5 c 128,-1,11
 655 1466 655 1466 504 1466 c 256,0,1
810 783 m 1,12,13
 679 689 679 689 504 689 c 0,14,15
 298 689 298 689 151.5 822 c 128,-1,16
 5 955 5 955 5 1144 c 256,17,18
 5 1333 5 1333 150 1466.5 c 128,-1,19
 295 1600 295 1600 504 1600 c 0,20,21
 714 1600 714 1600 859.5 1466.5 c 128,-1,22
 1005 1333 1005 1333 1005 1144 c 0,23,24
 1005 1092 1005 1092 994 1044 c 1,25,-1
 995 1044 l 1,26,-1
 995 707 l 1,27,-1
 1000 707 l 1,28,-1
 1000 579 l 1,29,30
 697 579 697 579 484 482 c 0,31,32
 270 385 270 385 270 246 c 256,33,34
 270 107 270 107 484 10 c 0,35,36
 697 -87 697 -87 1000 -87 c 1,37,-1
 1000 -213 l 1,38,39
 584 -212 584 -212 290 -80 c 0,40,41
 -5 54 -5 54 -5 246 c 0,42,43
 -5 439 -5 439 290 573 c 0,44,45
 514 675 514 675 810 699 c 1,46,-1
 810 783 l 1,12,13
EndSplineSet
EndChar

StartChar: g
Encoding: 103 103 74
Width: 1200
GlyphClass: 1
Flags: W
LayerCount: 2
Fore
SplineSet
604 310 m 1,0,1
 336 208 336 208 209 -30 c 0,2,3
 164 -115 164 -115 146 -200 c 1,4,-1
 3 -200 l 1,5,-1
 3 -32 l 1,6,7
 166 273 166 273 495 418 c 1,8,9
 298 576 298 576 23 576 c 2,10,-1
 4 576 l 1,11,-1
 7 666 l 1,12,-1
 -5 666 l 1,13,-1
 -5 1600 l 1,14,-1
 210 1600 l 1,15,-1
 210 702 l 1,16,17
 503 656 503 656 721 459 c 0,18,19
 1006 202 1006 202 1006 -163 c 0,20,21
 1006 -187 1006 -187 1005 -211 c 1,22,-1
 716 -211 l 1,23,24
 734 -139 734 -139 734 -60 c 0,25,26
 734 150 734 150 604 310 c 1,0,1
EndSplineSet
EndChar

StartChar: h
Encoding: 104 104 75
Width: 1195
GlyphClass: 1
Flags: W
LayerCount: 2
Fore
SplineSet
-4 677 m 1,0,-1
 -9 677 l 1,1,-1
 -9 803 l 1,2,3
 294 803 294 803 507 900 c 0,4,5
 721 997 721 997 721 1136 c 256,6,7
 721 1275 721 1275 507 1372 c 0,8,9
 294 1469 294 1469 -9 1469 c 1,10,-1
 -9 1597 l 1,11,12
 407 1596 407 1596 701 1463 c 0,13,14
 995 1329 995 1329 995 1136 c 0,15,16
 995 944 995 944 701 810 c 0,17,18
 690 805 690 805 678 800 c 1,19,-1
 1010 800 l 1,20,-1
 1010 600 l 1,21,-1
 997 600 l 1,22,-1
 997 587 l 1,23,-1
 978 587 l 2,24,25
 680 587 680 587 474 402 c 0,26,27
 414 348 414 348 372 288 c 1,28,29
 689 250 689 250 922 40 c 0,30,31
 973 -6 973 -6 1015 -56 c 1,32,-1
 1015 -200 l 1,33,-1
 865 -200 l 1,34,35
 815 -107 815 -107 728 -28 c 0,36,37
 548 132 548 132 301 154 c 1,38,39
 267 59 267 59 267 -49 c 0,40,41
 267 -128 267 -128 285 -200 c 1,42,-1
 -4 -200 l 1,43,44
 -5 -176 -5 -176 -5 -152 c 0,45,46
 -5 213 -5 213 280 470 c 0,47,48
 365 546 365 546 461 600 c 1,49,-1
 -5 600 l 1,50,-1
 -4 677 l 1,0,-1
EndSplineSet
EndChar

StartChar: i
Encoding: 105 105 76
Width: 800
GlyphClass: 1
Flags: W
LayerCount: 2
Fore
SplineSet
116 210 m 1,0,1
 129 153 129 153 146 102 c 0,2,3
 216 -112 216 -112 318 -112 c 0,4,5
 418 -112 418 -112 490 102 c 0,6,7
 507 153 507 153 519 210 c 1,8,-1
 624 210 l 1,9,10
 600 46 600 46 555 -92 c 0,11,12
 458 -387 458 -387 318 -387 c 0,13,14
 177 -387 177 -387 79 -92 c 0,15,16
 34 46 34 46 10 210 c 1,17,-1
 116 210 l 1,0,1
EndSplineSet
EndChar

StartChar: j
Encoding: 106 106 77
Width: 1200
GlyphClass: 1
Flags: W
LayerCount: 2
Fore
SplineSet
769 945 m 1,0,1
 722 1036 722 1036 648 1114 c 0,2,3
 450 1320 450 1320 167 1320 c 0,4,5
 82 1320 82 1320 5 1302 c 1,6,-1
 5 1591 l 1,7,8
 31 1592 31 1592 57 1592 c 0,9,10
 446 1592 446 1592 720.5 1307 c 128,-1,11
 995 1022 995 1022 995 609 c 2,12,-1
 995 595 l 1,13,-1
 915 592 l 1,14,-1
 915 590 l 1,15,-1
 220 590 l 1,16,-1
 220 -190 l 1,17,-1
 -5 -190 l 1,18,-1
 -5 800 l 1,19,-1
 707 800 l 1,20,21
 561 925 561 925 366 966 c 0,22,23
 170 1008 170 1008 0 950 c 1,24,-1
 0 1183 l 1,25,26
 148 1197 148 1197 310 1164 c 0,27,28
 571 1110 571 1110 769 945 c 1,0,1
995 290 m 1,29,-1
 400 290 l 1,30,-1
 400 500 l 1,31,-1
 995 500 l 1,32,-1
 995 290 l 1,29,-1
EndSplineSet
EndChar

StartChar: k
Encoding: 107 107 78
Width: 1200
GlyphClass: 1
Flags: W
LayerCount: 2
Fore
SplineSet
15 620 m 1,0,-1
 2 620 l 1,1,-1
 2 1610 l 1,2,-1
 200 1610 l 1,3,-1
 200 710 l 1,4,-1
 496 414 l 1,5,-1
 882 800 l 1,6,-1
 1015 800 l 1,7,-1
 1015 646 l 1,8,-1
 640 271 l 1,9,-1
 1015 -105 l 1,10,-1
 1015 -210 l 1,11,-1
 832 -210 l 1,12,-1
 496 127 l 1,13,-1
 163 -206 l 1,14,-1
 5 -209 l 1,15,-1
 5 -77 l 1,16,-1
 352 270 l 1,17,-1
 15 607 l 1,18,-1
 15 620 l 1,0,-1
EndSplineSet
EndChar

StartChar: l
Encoding: 108 108 79
Width: 1200
GlyphClass: 1
Flags: W
LayerCount: 2
Fore
SplineSet
8 680 m 1,0,-1
 0 680 l 1,1,2
 1 1058 1 1058 146 1325 c 0,3,4
 293 1593 293 1593 504 1593 c 0,5,6
 713 1593 713 1593 860 1325 c 0,7,8
 1004 1058 1004 1058 1005 680 c 1,9,-1
 867 680 l 1,10,11
 867 955 867 955 761 1149 c 256,12,13
 655 1343 655 1343 504 1343 c 0,14,15
 352 1343 352 1343 246 1149 c 0,16,17
 146 966 146 966 140 711 c 1,18,19
 477 679 477 679 721 459 c 0,20,21
 1006 202 1006 202 1006 -163 c 0,22,23
 1006 -187 1006 -187 1005 -211 c 1,24,-1
 716 -211 l 1,25,26
 734 -139 734 -139 734 -60 c 0,27,28
 734 150 734 150 604 310 c 1,29,30
 336 208 336 208 209 -30 c 0,31,32
 164 -115 164 -115 146 -200 c 1,33,-1
 3 -200 l 1,34,-1
 3 -32 l 1,35,36
 166 273 166 273 495 418 c 1,37,38
 298 576 298 576 23 576 c 2,39,-1
 4 576 l 1,40,-1
 8 680 l 1,0,-1
EndSplineSet
EndChar

StartChar: m
Encoding: 109 109 80
Width: 1195
GlyphClass: 1
Flags: W
LayerCount: 2
Fore
SplineSet
190 1591 m 1,0,-1
 1015 1591 l 1,1,-1
 1015 1381 l 1,2,-1
 190 1381 l 1,3,-1
 190 716 l 1,4,5
 489 674 489 674 711 470 c 0,6,7
 989 213 989 213 989 -152 c 0,8,9
 989 -176 989 -176 988 -200 c 1,10,-1
 706 -200 l 1,11,12
 723 -128 723 -128 723 -49 c 0,13,14
 723 132 723 132 629 276 c 1,15,-1
 143 -210 l 1,16,-1
 -3 -210 l 1,17,-1
 -3 -60 l 1,18,-1
 488 431 l 1,19,20
 357 538 357 538 190 571 c 1,21,-1
 190 570 l 1,22,-1
 4 570 l 1,23,-1
 4 1594 l 1,24,-1
 190 1594 l 1,25,-1
 190 1591 l 1,0,-1
EndSplineSet
EndChar

StartChar: n
Encoding: 110 110 81
Width: 1200
GlyphClass: 1
Flags: W
LayerCount: 2
Fore
SplineSet
1007 657 m 1,0,-1
 1007 583 l 1,1,2
 704 583 704 583 491 486 c 0,3,4
 277 389 277 389 277 250 c 256,5,6
 277 111 277 111 491 14 c 0,7,8
 704 -83 704 -83 1007 -83 c 1,9,-1
 1007 -209 l 1,10,11
 591 -208 591 -208 297 -76 c 0,12,13
 2 58 2 58 2 250 c 0,14,15
 2 443 2 443 297 577 c 0,16,17
 459 650 459 650 659 684 c 1,18,19
 470 714 470 714 314 779 c 1,20,-1
 115 580 l 1,21,-1
 3 580 l 1,22,-1
 4 695 l 1,23,-1
 165 856 l 1,24,25
 -9 969 -9 969 -9 1116 c 0,26,27
 -9 1309 -9 1309 289 1443 c 0,28,29
 542 1556 542 1556 883 1574 c 1,30,-1
 889 1580 l 1,31,-1
 1005 1580 l 1,32,-1
 1005 1577 l 1,33,-1
 1008 1577 l 1,34,-1
 1008 1449 l 1,35,-1
 984 1449 l 1,36,-1
 438 903 l 1,37,38
 460 891 460 891 485 880 c 0,39,40
 701 783 701 783 1008 783 c 1,41,-1
 1008 657 l 1,42,-1
 1007 657 l 1,0,-1
736 1427 m 1,43,44
 598 1403 598 1403 485 1352 c 0,45,46
 269 1255 269 1255 269 1116 c 0,47,48
 269 1055 269 1055 311 1002 c 1,49,-1
 736 1427 l 1,43,44
EndSplineSet
EndChar

StartChar: o
Encoding: 111 111 82
Width: 5
GlyphClass: 1
Flags: W
LayerCount: 2
Fore
SplineSet
160 1349 m 1,0,-1
 160 963 l 1,1,-1
 8 963 l 1,2,-1
 8 1349 l 1,3,-1
 160 1349 l 1,0,-1
EndSplineSet
EndChar

StartChar: p
Encoding: 112 112 83
Width: 1200
GlyphClass: 1
Flags: W
LayerCount: 2
Fore
SplineSet
742 694 m 1,0,1
 486 723 486 723 286 813 c 0,2,3
 -6 947 -6 947 -6 1139 c 0,4,5
 -6 1332 -6 1332 286 1466 c 0,6,7
 578 1599 578 1599 990 1600 c 1,8,-1
 990 1472 l 1,9,10
 690 1472 690 1472 479 1375 c 0,11,12
 267 1278 267 1278 267 1139 c 256,13,14
 267 1000 267 1000 479 903 c 0,15,16
 690 806 690 806 990 806 c 1,17,-1
 990 680 l 1,18,-1
 986 680 l 1,19,-1
 990 576 l 1,20,-1
 971 576 l 2,21,22
 678 576 678 576 475 391 c 0,23,24
 420 340 420 340 379 283 c 1,25,26
 682 240 682 240 907 38 c 0,27,28
 958 -8 958 -8 1000 -58 c 1,29,-1
 1000 -202 l 1,30,-1
 850 -202 l 1,31,32
 800 -109 800 -109 713 -30 c 0,33,34
 541 123 541 123 308 150 c 1,35,36
 272 52 272 52 272 -60 c 0,37,38
 272 -139 272 -139 289 -211 c 1,39,-1
 5 -211 l 1,40,41
 4 -187 4 -187 4 -163 c 0,42,43
 4 202 4 202 285 459 c 0,44,45
 482 640 482 640 742 694 c 1,0,1
EndSplineSet
EndChar

StartChar: r
Encoding: 114 114 85
Width: 1210
GlyphClass: 1
Flags: W
LayerCount: 2
Fore
SplineSet
5 800 m 1,0,-1
 5 1600 l 1,1,-1
 210 1600 l 1,2,-1
 210 800 l 1,3,-1
 995 800 l 1,4,-1
 995 633 l 1,5,-1
 997 577 l 1,6,-1
 978 577 l 2,7,8
 680 577 680 577 474 392 c 0,9,10
 295 232 295 232 271 13 c 1,11,12
 350 24 350 24 431 58 c 0,13,14
 581 123 581 123 687 243 c 1,15,-1
 786 133 l 2,16,17
 784 131 784 131 782 129 c 2,18,-1
 1015 -104 l 1,19,-1
 1015 -210 l 1,20,-1
 882 -210 l 1,21,-1
 663 8 l 1,22,23
 551 -86 551 -86 411 -146 c 0,24,25
 348 -173 348 -173 284 -190 c 1,26,-1
 280 -188 l 1,27,28
 282 -199 282 -199 285 -210 c 1,29,-1
 -4 -210 l 1,30,31
 -5 -186 -5 -186 -5 -162 c 0,32,33
 -5 203 -5 203 280 460 c 0,34,35
 365 536 365 536 461 590 c 1,36,-1
 1 590 l 1,37,-1
 1 800 l 1,38,-1
 5 800 l 1,0,-1
EndSplineSet
EndChar

StartChar: s
Encoding: 115 115 86
Width: 1200
GlyphClass: 1
Flags: W
LayerCount: 2
Fore
SplineSet
834 720 m 1,0,-1
 200 1354 l 1,1,-1
 200 771 l 1,2,3
 309 677 309 677 389 557 c 1,4,5
 586 690 586 690 834 720 c 1,0,-1
474 403 m 0,7,8
 267 217 267 217 267 -48 c 0,9,10
 267 -127 267 -127 285 -199 c 1,11,-1
 -4 -199 l 1,12,13
 -5 -175 -5 -175 -5 -151 c 0,14,15
 -5 202 -5 202 261 454 c 1,16,17
 193 540 193 540 101 605 c 0,18,19
 53 639 53 639 5 662 c 1,20,-1
 5 1610 l 1,21,-1
 200 1610 l 1,22,-1
 200 1608 l 1,23,-1
 1001 1608 l 1,24,-1
 1001 1398 l 1,25,-1
 408 1398 l 1,26,-1
 1005 801 l 1,27,-1
 1005 592 l 1,28,-1
 966 588 l 1,29,6
 676 584 676 584 474 403 c 0,7,8
EndSplineSet
EndChar

StartChar: t
Encoding: 116 116 87
Width: 1200
GlyphClass: 1
Flags: W
LayerCount: 2
Fore
SplineSet
332 790 m 1,0,1
 308 800 308 800 285 810 c 0,2,3
 -10 944 -10 944 -10 1136 c 0,4,5
 -10 1329 -10 1329 285 1463 c 0,6,7
 579 1596 579 1596 995 1597 c 1,8,-1
 995 1469 l 1,9,10
 692 1469 692 1469 479 1372 c 0,11,12
 265 1275 265 1275 265 1136 c 256,13,14
 265 997 265 997 479 900 c 0,15,16
 692 803 692 803 995 803 c 1,17,-1
 995 790 l 1,18,-1
 1000 790 l 1,19,-1
 1000 590 l 1,20,-1
 684 590 l 1,21,22
 698 584 698 584 712 578 c 0,23,24
 1007 444 1007 444 1007 252 c 0,25,26
 1007 59 1007 59 712 -75 c 0,27,28
 418 -208 418 -208 2 -209 c 1,29,-1
 2 -81 l 1,30,31
 305 -81 305 -81 518 16 c 0,32,33
 732 113 732 113 732 252 c 256,34,35
 732 391 732 391 518 488 c 0,36,37
 305 585 305 585 2 585 c 1,38,-1
 2 711 l 1,39,-1
 11 711 l 1,40,-1
 11 790 l 1,41,-1
 332 790 l 1,0,1
EndSplineSet
EndChar

StartChar: u
Encoding: 117 117 88
Width: 20
GlyphClass: 1
Flags: W
LayerCount: 2
Fore
SplineSet
309 930 m 1,0,-1
 25 930 l 1,1,-1
 25 1082 l 1,2,-1
 309 1082 l 1,3,-1
 309 930 l 1,0,-1
EndSplineSet
EndChar

StartChar: v
Encoding: 118 118 89
Width: 1195
GlyphClass: 1
Flags: W
LayerCount: 2
Fore
SplineSet
1006 710 m 1,0,-1
 1010 710 l 1,1,-1
 1010 581 l 1,2,3
 705 581 705 581 491 484 c 0,4,5
 276 386 276 386 276 247 c 0,6,7
 276 107 276 107 491 10 c 0,8,9
 705 -87 705 -87 1010 -87 c 1,10,-1
 1010 -214 l 1,11,12
 592 -212 592 -212 296 -80 c 0,13,14
 0 54 0 54 0 247 c 0,15,16
 0 441 0 441 296 575 c 0,17,18
 494 664 494 664 746 694 c 1,19,20
 488 750 488 750 291 927 c 0,21,22
 289 929 289 929 286 931 c 1,23,24
 277 878 277 878 277 821 c 0,25,26
 277 742 277 742 295 669 c 1,27,-1
 6 669 l 1,28,29
 5 694 5 694 5 718 c 0,30,31
 5 948 5 948 117 1135 c 1,32,33
 5 1322 5 1322 5 1552 c 0,34,35
 5 1576 5 1576 6 1600 c 1,36,-1
 296 1600 l 1,37,38
 278 1528 278 1528 278 1448 c 0,39,40
 278 1392 278 1392 287 1339 c 1,41,42
 289 1341 289 1341 290 1342 c 0,43,44
 575 1600 575 1600 988 1600 c 2,45,-1
 1000 1600 l 1,46,-1
 1000 1459 l 1,47,-1
 988 1459 l 2,48,49
 690 1459 690 1459 484 1273 c 0,50,51
 412 1209 412 1209 366 1136 c 1,52,53
 413 1061 413 1061 485 996 c 0,54,55
 692 810 692 810 991 810 c 2,56,-1
 1010 810 l 1,57,-1
 1006 710 l 1,0,-1
EndSplineSet
EndChar

StartChar: w
Encoding: 119 119 90
Width: 1200
GlyphClass: 1
Flags: W
LayerCount: 2
Fore
SplineSet
200 1265 m 1,0,-1
 200 800 l 1,1,-1
 5 800 l 1,2,-1
 5 1610 l 1,3,-1
 200 1610 l 1,4,-1
 200 1608 l 1,5,-1
 1001 1608 l 1,6,-1
 1001 1398 l 1,7,-1
 343 1398 l 1,8,-1
 1010 731 l 1,9,-1
 1010 583 l 1,10,-1
 885 580 l 1,11,-1
 882 583 l 1,12,13
 646 557 646 557 474 403 c 0,14,15
 417 352 417 352 376 295 c 1,16,17
 675 250 675 250 898 50 c 0,18,19
 949 4 949 4 991 -46 c 1,20,-1
 991 -190 l 1,21,-1
 841 -190 l 1,22,23
 791 -97 791 -97 704 -18 c 0,24,25
 534 134 534 134 304 161 c 1,26,27
 267 64 267 64 267 -48 c 0,28,29
 267 -127 267 -127 285 -199 c 1,30,-1
 -4 -199 l 1,31,32
 -5 -175 -5 -175 -5 -151 c 0,33,34
 -5 214 -5 214 280 471 c 0,35,36
 485 656 485 656 757 708 c 1,37,-1
 200 1265 l 1,0,-1
EndSplineSet
EndChar

StartChar: x
Encoding: 120 120 91
Width: 1200
GlyphClass: 1
Flags: W
LayerCount: 2
Fore
SplineSet
24 414 m 1,0,-1
 5 415 l 1,1,-1
 5 433 l 2,2,3
 5 917 5 917 279.5 1252.5 c 128,-1,4
 554 1588 554 1588 944 1588 c 0,5,6
 969 1588 969 1588 995 1587 c 1,7,-1
 995 1247 l 1,8,9
 918 1268 918 1268 834 1268 c 0,10,11
 551 1268 551 1268 353 1025 c 0,12,13
 259 910 259 910 210 771 c 1,14,-1
 210 -55 l 1,15,16
 387 -15 387 -15 524 103 c 0,17,18
 731 281 731 281 731 535 c 0,19,20
 731 611 731 611 713 680 c 1,21,-1
 1004 680 l 1,22,23
 1005 657 1005 657 1005 634 c 0,24,25
 1005 283 1005 283 719 37 c 0,26,27
 703 23 703 23 688 11 c 1,28,-1
 1003 11 l 1,29,-1
 1003 -210 l 1,30,-1
 101 -210 l 1,31,-1
 101 -207 l 1,32,33
 59 -210 59 -210 16 -210 c 2,34,-1
 2 -210 l 1,35,-1
 -3 -76 l 1,36,-1
 12 -76 l 1,37,-1
 12 357 l 1,38,-1
 24 414 l 1,0,-1
EndSplineSet
EndChar

StartChar: y
Encoding: 121 121 92
Width: 1200
GlyphClass: 1
Flags: W
LayerCount: 2
Fore
SplineSet
815 886 m 1,0,1
 685 710 685 710 514 710 c 0,2,3
 303 710 303 710 156 972 c 0,4,5
 11 1233 11 1233 10 1603 c 1,6,-1
 150 1603 l 1,7,8
 150 1334 150 1334 256 1144 c 0,9,10
 362 955 362 955 514 955 c 0,11,12
 665 955 665 955 771 1144 c 0,13,14
 877 1334 877 1334 877 1603 c 1,15,-1
 1015 1603 l 1,16,17
 1015 1508 1015 1508 1005 1420 c 1,18,-1
 1005 610 l 1,19,-1
 997 610 l 1,20,-1
 997 593 l 1,21,22
 694 593 694 593 481 496 c 0,23,24
 267 399 267 399 267 260 c 256,25,26
 267 121 267 121 481 24 c 0,27,28
 694 -73 694 -73 997 -73 c 1,29,-1
 997 -199 l 1,30,31
 581 -198 581 -198 287 -66 c 0,32,33
 -8 68 -8 68 -8 260 c 0,34,35
 -8 453 -8 453 287 587 c 0,36,37
 514 690 514 690 815 714 c 1,38,-1
 815 886 l 1,0,1
EndSplineSet
EndChar

StartChar: z
Encoding: 122 122 93
Width: 1200
GlyphClass: 1
Flags: W
LayerCount: 2
Fore
SplineSet
995 810 m 1,0,-1
 995 -210 l 1,1,-1
 795 -210 l 1,2,-1
 795 610 l 1,3,-1
 605 610 l 1,4,-1
 605 628 l 1,5,-1
 411 292 l 1,6,-1
 605 -44 l 1,7,-1
 605 -200 l 1,8,-1
 452 -200 l 1,9,-1
 290 82 l 1,10,-1
 127 -200 l 1,11,-1
 4 -200 l 1,12,-1
 -5 -195 l 1,13,-1
 -5 11 l 1,14,-1
 163 302 l 1,15,-1
 -5 593 l 1,16,-1
 -5 810 l 1,17,-1
 112 810 l 1,18,-1
 284 513 l 1,19,-1
 455 810 l 1,20,-1
 995 810 l 1,0,-1
EndSplineSet
EndChar

StartChar: asciitilde
Encoding: 126 126 97
Width: 615
GlyphClass: 1
Flags: W
LayerCount: 2
Fore
SplineSet
175 -200 m 1,0,-1
 -35 -199 l 1,1,-1
 175 12 l 1,2,-1
 175 -200 l 1,0,-1
225 1020 m 1,3,-1
 182 78 l 1,4,-1
 48 78 l 1,5,-1
 5 1020 l 1,6,-1
 225 1020 l 1,3,-1
EndSplineSet
EndChar

